<svg id="Capa_1" enable-background="new 0 0 512.01 512.01" height="512" viewBox="0 0 512.01 512.01" width="512" xmlns="http://www.w3.org/2000/svg"><g><path d="m135.005 120.01h105v15c0 24.814 20.186 45 45 45 8.291 0 15-6.709 15-15v-60c0-19.966-13.066-36.929-31.099-42.803-6.093-35.273-36.914-62.197-73.901-62.197-19.6 0-33.721 9.36-46.187 17.607-10.034 6.65-18.706 12.393-28.813 12.393-19.717 0-31.611-21.782-31.699-21.914-3.193-6.138-10.151-9.316-16.86-7.661-6.724 1.641-11.44 7.661-11.44 14.575 0 1.685.205 41.719 18.047 71.323 16.684 27.832 40.18 33.677 56.952 33.677z"/><path d="m180.005 360.01c-15.187 0-30.135-3.166-44.099-8.784l44.099 58.793 44.092-58.788c-13.96 5.615-28.912 8.779-44.092 8.779z"/><path d="m15.005 512.01h110.728l36.713-75.423-52.996-70.655-98.077 24.532c-6.68 1.67-11.367 7.661-11.367 14.546v92c-.001 8.291 6.708 15 14.999 15z"/><path d="m200.733 512.01-20.728-43.455-20.727 43.455z"/><path d="m270.005 240.01v-31.644c-29.322-5.997-52.511-29.03-58.491-58.356h-62.426l-3.594 10.078c-8.917 24.999-30.289 42.955-55.488 48.193v31.729c0 50.658 40.941 90 90 90 48.846 0 89.999-39.372 89.999-90z"/><path d="m75.005 180.01c19.53 0 36.024-12.578 42.237-30h-12.237c-30.485 0-26.389-13.92-45-38.267v53.267c0 8.291 6.709 15 15 15z"/><path d="m300.005 237.247c17.422-6.213 30-22.707 30-42.237 0-5.295-1.069-10.289-2.765-14.995-4.532 12.704-14.529 22.701-27.235 27.231z"/><path d="m60.005 237.247v-30c-12.706-4.53-22.703-14.528-27.235-27.231-1.696 4.706-2.765 9.699-2.765 14.995 0 19.529 12.578 36.023 30 42.236z"/><path d="m497.005 330.01h-45v-45c0-8.291-6.709-15-15-15h-92c-8.291 0-15 6.709-15 15v45h-45c-8.291 0-15 6.709-15 15 0 24.814 20.186 45 45 45h152c24.814 0 45-20.186 45-45 0-8.291-6.709-15-15-15zm-75 0h-62v-30h62z"/><path d="m406.005 420.01v15c0 8.291-6.709 15-15 15s-15-6.709-15-15v-15h-61c-16.948 0-32.426-5.865-45-15.383v92.383c0 8.291 6.709 15 15 15h212c8.291 0 15-6.709 15-15v-92.383c-12.574 9.518-28.052 15.383-45 15.383z"/><path d="m242.768 512.01c-1.681-4.715-2.763-9.716-2.763-15v-117.01l-42.44 56.587 36.713 75.423z"/></g></svg>